<?xml version="1.0" encoding="utf-8"?>
<!-- Generator: Adobe Illustrator 27.0.0, SVG Export Plug-In . SVG Version: 6.00 Build 0)  -->
<svg version="1.1" id="Шар_1" xmlns="http://www.w3.org/2000/svg" xmlns:xlink="http://www.w3.org/1999/xlink" x="0px" y="0px"
	 viewBox="0 0 714 714" style="enable-background:new 0 0 714 714;" xml:space="preserve">
<style type="text/css">
	.st0{fill:#C63054;}
	.st1{fill:#FFD3C0;}
	.st2{fill:#E5BB65;}
	.st3{fill:#BC9550;}
	.st4{fill:#3A3328;}
	.st5{fill:#3F312D;}
	.st6{fill:#F26161;}
	.st7{fill:#603030;}
	.st8{fill:#80A7FF;}
	.st9{fill:#5778B2;}
	.st10{fill:#EFAD97;}
	.st11{fill:#FFE1E1;}
	.st12{fill:#FFC7B3;}
	.st13{fill:#BC4D3B;}
	.st14{fill:#FF6845;}
	.st15{fill:#FF6757;}
	.st16{fill:#FF5F76;}
	.st17{fill:#84AA6B;}
	.st18{fill:#5A7A46;}
	.st19{fill:#FFA1DB;}
	.st20{fill:#F281CC;}
	.st21{fill:#FFE0B6;}
	.st22{fill:#A4C0FF;}
	.st23{fill:#7596D1;}
	.st24{fill:#A4F4FF;}
	.st25{fill:#83D7DD;}
	.st26{fill:#FF88B6;}
	.st27{fill:#DD4E77;}
	.st28{fill:#BF406A;}
	.st29{fill:#4F4242;}
	.st30{fill:#EA3434;}
	.st31{fill:#3D3535;}
	.st32{fill:#665252;}
	.st33{fill:#C12D2D;}
	.st34{fill:#685656;}
	.st35{fill:#FFFFFF;}
	.st36{fill:#1E1515;}
	.st37{fill:#FFD4D4;}
	.st38{fill:#282323;}
	.st39{fill:#FFB948;}
	.st40{fill:#E59641;}
	.st41{fill:#FFE2B8;}
	.st42{fill:#FFEED7;}
	.st43{fill:#5E7F49;}
	.st44{fill:#496339;}
	.st45{fill:#FFC0E0;}
	.st46{fill:#9157DD;}
	.st47{fill:#8D5CCC;}
	.st48{fill:#98939E;}
	.st49{fill:#68597C;}
	.st50{fill:#DCC5FF;}
</style>
<g>
	<path class="st29" d="M550.33,446.44c0,96.73-62.4,142.7-139.37,142.7s-139.37-45.97-139.37-142.7s62.4-175.15,139.37-175.15
		S550.33,349.71,550.33,446.44z"/>
	<path class="st30" d="M410.96,307.07L262.43,547.54c0,0-24.96-90.7,0-171.41s78.22-119.82,148.53-121.48
		s127.72,54.92,156.01,128.97s9.98,163.92,9.98,163.92L410.96,307.07z"/>
	<path class="st31" d="M500.51,228.75c0,49.46-40.09,67.09-89.55,67.09s-89.55-17.63-89.55-67.09s40.09-89.55,89.55-89.55
		S500.51,179.29,500.51,228.75z"/>
	<path class="st31" d="M345.22,300c-6.65-6.24-17.36-5.14-23.71,0.42c-7.18,6.29-9.1,18.56-2.08,25.79
		c6.79,6.99,18.72,5.94,25.38-0.83C351.46,318.61,352.33,306.67,345.22,300z"/>
	<path class="st31" d="M341.89,354.91c-1.33-4.43-6.22-7.76-11.23-7.07c-6.03,0.83-10.07,7.18-8.74,12.9
		c1.01,4.31,4.93,7.69,9.15,7.9C337.72,368.98,343.84,361.41,341.89,354.91z"/>
	<path class="st31" d="M284.48,413.58c-7.93-1.84-14.52-11.3-11.23-19.14c2.74-6.52,11.36-9.61,17.89-7.07
		c8.55,3.33,11.65,15.58,6.66,22.05C294.7,413.43,288.96,414.62,284.48,413.58z"/>
	<path class="st31" d="M289.47,468.49c-5.31,2.99-12.32,1.69-16.64-2.08c-6.93-6.05-7.57-18.98,0-24.55
		c6.01-4.42,15.45-2.91,20.39,2.91C299.32,451.98,297.16,464.17,289.47,468.49z"/>
	<path class="st31" d="M482.93,329.54c-3.59,4.08-11.3,2.56-13.73,2.08c-12.25-2.42-24.58-14.31-22.05-22.05
		c2.26-6.91,16.65-11.32,26.63-5.82C483.79,309.26,487.84,323.95,482.93,329.54z"/>
	<path class="st31" d="M522.87,353.67c-4.3,2.31-11.46-2.94-14.98-7.07c-3.07-3.61-7.51-11.22-4.58-15.39
		c3.1-4.41,13.66-3.91,19.14,1.66C528.58,339.1,527.7,351.07,522.87,353.67z"/>
	<path class="st31" d="M507.06,381.96c-3.07-2.64-8.85-5.3-12.48-2.91c-4.26,2.81-3.86,11.49,0,16.64
		c4.17,5.57,13.03,7.86,16.64,4.58C515.13,396.72,512.75,386.83,507.06,381.96z"/>
	<path class="st31" d="M550.75,428.97c-5.91-2.34-12.85-9.09-11.23-16.64c0.98-4.58,5.06-9.25,9.98-9.57
		c7.09-0.46,11.33,8.42,12.48,10.82c0.65,1.36,5.13,10.74,0.83,14.98C559.13,432.18,551.73,429.36,550.75,428.97z"/>
	<path class="st31" d="M562.39,486.38c-4.33,2.11-12.49-6.49-15.81-9.98c-4.62-4.86-12.19-12.84-9.57-18.72
		c2.42-5.43,12.84-7.5,19.55-4.16C568.83,459.61,568.32,483.49,562.39,486.38z"/>
	<path class="st31" d="M245.63,417.16c-11.42,0-26.4-1.88-36.36-10.26c-6.93-5.84-10.45-14.02-10.45-24.32h4.07
		c0,9.04,3.03,16.17,8.99,21.2c16.18,13.63,48.83,8.2,49.16,8.14l0.69,4.01C261.12,416.05,254.44,417.16,245.63,417.16z"/>
	<path class="st31" d="M639.48,469.86c-14.6-52.07-39.59-76.26-57.99-87.38c-19.89-12.02-36.57-11.8-36.73-11.79l-0.1-4.07
		c0.72-0.02,17.84-0.3,38.7,12.23c19.11,11.47,45.03,36.39,60.04,89.91L639.48,469.86z"/>
	<polygon class="st31" points="343.15,657.54 341.37,653.88 376.05,636.96 376.05,564.18 380.13,564.18 380.13,639.51 	"/>
	<polygon class="st31" points="495.17,657.54 458.19,639.51 458.19,564.18 462.27,564.18 462.27,636.96 496.95,653.88 	"/>
	<path class="st32" d="M361.36,163.34c-3.49-32.49-21.9-53.72-38.6-60.35c-11.29-4.48-22.4-2.77-31.27,4.83
		c-8.66,7.41-12.42,18-10.34,29.08c1.75,9.28,7.52,17.35,14.04,19.62c3.88,1.35,7.73,0.52,11.12-2.42
		c5.29-4.58,7.82-9.16,7.53-13.63c-0.43-6.78-7.25-11.37-7.32-11.42l2.24-3.4c0.35,0.23,8.56,5.72,9.15,14.53
		c0.39,5.82-2.62,11.54-8.93,17c-4.49,3.89-9.86,5.02-15.13,3.18c-7.95-2.77-14.66-11.9-16.7-22.72
		c-2.36-12.54,1.9-24.54,11.69-32.93c10.08-8.63,22.66-10.59,35.43-5.52c21.43,8.51,37.97,34.11,41.15,63.71L361.36,163.34z"/>
	<path class="st32" d="M450.25,163.34l-4.05-0.44c3.18-29.59,19.71-55.19,41.15-63.71c12.77-5.07,25.35-3.11,35.43,5.52
		c9.79,8.38,14.06,20.38,11.69,32.93c-2.04,10.81-8.75,19.94-16.7,22.72c-5.26,1.84-10.63,0.7-15.13-3.18
		c-6.31-5.46-9.32-11.18-8.93-17c0.58-8.81,8.8-14.3,9.15-14.53l2.24,3.4c-0.07,0.05-6.89,4.64-7.32,11.42
		c-0.29,4.47,2.25,9.05,7.53,13.63c3.39,2.94,7.23,3.77,11.12,2.42c6.52-2.27,12.29-10.34,14.04-19.62
		c2.08-11.07-1.68-21.67-10.34-29.08c-8.88-7.6-19.98-9.31-31.27-4.83C472.15,109.62,453.74,130.85,450.25,163.34z"/>
	<path class="st30" d="M246.9,260.75l-25.21,3.61l-5.85,13.59l-3.01-9.16l-11.7,14.98l-0.28-29.16c0,0-69.33,9.19-114.82-47.95
		c-32.83-41.23-24.34-80.59-1.75-105.66V101c8.72-9.67,19.52-17.22,30.87-21.92c37.85-15.7,100.07,1.34,109.47,55.1v0.02
		c0.73,4.15,1.14,8.52,1.2,13.11c0.83,64.07-12.99,98.18-12.99,98.18L246.9,260.75z"/>
	<path class="st33" d="M246.9,260.75l-25.21,3.61l-5.85,13.59l-3.01-9.16l-11.7,14.98l-0.28-29.16c0,0-69.33,9.19-114.82-47.95
		c-32.83-41.23-24.34-80.59-1.75-105.66c0,0-10.73,95.19,54.59,116.51c65.3,21.31,91.2-48.18,85.75-83.32
		c0.73,4.15,1.14,8.52,1.2,13.11c0.83,64.07-12.99,98.18-12.99,98.18L246.9,260.75z"/>
	<path class="st34" d="M211.61,248.78l8.72-6.33l-1.92-2.64l-8.76,6.37c-0.03-0.04-0.07-0.08-0.09-0.1l-0.99,0.88l-12.21,8.87
		l1.92,2.64l10.66-7.75c4.69,7.04,16.3,29.07,8.42,65.72c-2.13,9.93-4.4,19.04-6.59,27.84c-8.03,32.26-13.83,55.57-0.57,71.84
		l2.53-2.06c-12.23-15.01-6.6-37.65,1.2-69c2.2-8.83,4.47-17.96,6.62-27.95C228.79,278.77,216.7,256.19,211.61,248.78z"/>
	<circle class="st35" cx="382.84" cy="222.51" r="19.45"/>
	<path class="st36" d="M395.56,222.51c0,7.02-5.7,12.72-12.72,12.72c-7.03,0-12.73-5.7-12.73-12.72c0-7.03,5.7-12.73,12.73-12.73
		c1.34,0,2.62,0.2,3.83,0.59c-2.39,1.61-3.59,5.2-2.75,7.76c1.39,4.32,8.52,5.75,11.63,3.92
		C395.56,222.2,395.56,222.36,395.56,222.51z"/>
	<circle class="st35" cx="435.64" cy="222.51" r="19.45"/>
	<path class="st36" d="M448.36,222.51c0,7.02-5.7,12.72-12.72,12.72c-7.03,0-12.73-5.7-12.73-12.72c0-7.03,5.7-12.73,12.73-12.73
		c1.34,0,2.62,0.2,3.83,0.59c-2.39,1.61-3.59,5.2-2.75,7.76c1.39,4.32,8.52,5.75,11.63,3.92
		C448.36,222.2,448.36,222.36,448.36,222.51z"/>
	<path class="st30" d="M409.92,264.81c-4.1,0-7.35-1.22-9.67-3.62c-3.77-3.9-3.62-9.47-3.61-9.71l2.44,0.08l-1.22-0.04l1.22,0.04
		c0,0.05-0.11,4.8,2.94,7.94c1.84,1.9,4.5,2.86,7.9,2.86c3.39,0,6-0.96,7.77-2.84c2.93-3.13,2.66-7.87,2.66-7.92l2.44-0.17
		c0.02,0.24,0.36,5.82-3.3,9.74C417.24,263.59,414.02,264.81,409.92,264.81z"/>
</g>
</svg>
